<svg xmlns="http://www.w3.org/2000/svg" width="40" height="40" viewBox="0 0 100 100">
  <defs>
    <style>
      .cls-3-c {
        fill: none;
      }

      .cls-1-c, .cls-2-c, .cls-3-c {
        stroke: #FFF;
        stroke-linecap: round;
        stroke-linejoin: round;
        stroke-width: 3px;
      }

      .cls-1-c {
        fill: evenodd;
        fill-rule: evenodd;
        stroke-width: 4px;
      }

      .cls-2-c, .cls-3-c {
        fill-rule: #FFF;
      }
    </style>
  </defs>
  <circle class="cls-1-c" cx="50" cy="50" r="45"/>
  <path class="cls-2-c" d="M49,19h5c0.662,0,.285,2.022,1,3,0.747,1.021,2.171,1,3,1,0.645,0,2.322.032,3-1,0.635-.966.439-3,1-3h5s3.017,0.745,3,2c-0.019,1.394-.006,2,0,3a1.437,1.437,0,0,1-1,1H47a1.87,1.87,0,0,1-1-1c-0.012-.99-0.035-1.525,0-3C46.025,19.963,49,19,49,19Z"/>
  <circle class="cls-1-c" cx="58" cy="19" r="3"/>
  <path class="cls-3-c" d="M29,33H51.75c0.236,0-22.758.045,1.25,0,2.09,0,2-.14,2,0-0.021,10.938,0,11,0,11s0,0.031,10,0c0.132,0,0,.046,0,1,0,1.113,0,1.826,0,2.125V82H29V33Z"/>
  <path class="cls-3-c" d="M55,33L65,44"/>
  <path class="cls-3-c" d="M36,48H59m0,3H36"/>
  <path class="cls-3-c" d="M36,55H59m0,3H36"/>
  <path class="cls-3-c" d="M36,62H59m0,3H36"/>
  <path class="cls-3-c" d="M40,32V23H76V72H66"/>
</svg>
